<?xml version="1.0" encoding="UTF-8" standalone="no"?>
<!-- Created with Inkscape (http://www.inkscape.org/) -->

<svg
   version="1.1"
   id="svg1"
   width="38.522793mm"
   height="38.388348mm"
   viewBox="0 0 145.59795 145.08981"
   xmlns="http://www.w3.org/2000/svg"
   xmlns:svg="http://www.w3.org/2000/svg">
  <defs
     id="defs1" />
  <g
     id="g34"
     transform="matrix(0.57907109,0,0,0.57907109,416.85984,485.59807)"
     style="stroke-width:1.7269">
    <path
       d="m -589.16837,-764.59904 c -1.58186,0 -3.16118,0.24347 -4.68554,0.71485 -2.54174,0.70288 -4.94402,2.04349 -6.93946,4.03906 l -35.375,35.375 c -6.16661,6.16127 -6.16661,16.17128 0,22.33789 6.16661,6.16661 16.12441,6.16661 22.29102,0 l 24.22461,-24.17774 12.72851,12.70313 10.58399,11.80078 c 6.16665,6.16665 16.1771,6.16665 22.34375,0 l -1.89844,1.89453 c 0.99639,-0.62298 1.94482,-1.35422 2.81055,-2.2207 3.15741,-3.15742 4.6872,-7.32261 4.61133,-11.46289 0.0764,-4.14093 -1.45343,-8.30694 -4.61133,-11.46485 l -34.91211,-34.91796 c -3.08331,-3.08072 -7.12791,-4.6211 -11.17188,-4.6211 z"
       style="fill:#ffffff;fill-opacity:1;stroke-width:1.7269"
       id="path31" />
    <path
       id="path32"
       d="m -606.3877,-808.05908 c -6.9896,-6.98933 -6.9896,-18.28667 0,-25.276 6.99054,-6.99466 18.34374,-6.99466 25.3332,0 l 107.36533,107.364 c 6.99467,6.99467 6.99467,18.34413 0,25.3332 l -107.36533,107.37077 c -6.98946,6.98959 -18.34266,6.98959 -25.3332,0 -6.9896,-6.99061 -6.9896,-18.34371 0,-25.33331 l 94.67187,-94.72919 z"
       style="fill:#6495ed;fill-opacity:1;fill-rule:nonzero;stroke:none;stroke-width:0.230253" />
    <path
       id="path33"
       d="m -617.99716,-649.50722 c 6.16253,6.16147 6.16253,16.12547 0,22.29214 -6.16667,6.16146 -16.176,6.16146 -22.34267,0 l -74.91196,-74.91707 c -6.16666,-6.16666 -6.16666,-16.1776 0,-22.33893 l 74.91196,-74.916 c 6.16667,-6.16667 16.176,-6.16667 22.34267,0 6.16253,6.16667 6.16253,16.17733 0,22.33867 l -63.72387,63.77093 z"
       style="fill:#ffffff;fill-opacity:1;fill-rule:nonzero;stroke:none;stroke-width:0.230253" />
    <path
       d="m -486.35722,-623.89018 -31.84179,0.0391 c -9.87218,0 -17.88914,8.00879 -17.91016,17.87695 -3e-5,0.0125 -0.002,0.0246 -0.002,0.0371 6.7e-4,9.88536 8.02752,17.91219 17.91211,17.91211 l 31.84179,-0.0391 c 9.8722,0 17.89109,-8.00876 17.91211,-17.87695 3e-5,-0.0125 0.002,-0.0246 0.002,-0.0371 -6.7e-4,-9.88539 -8.02944,-17.91219 -17.91407,-17.91211 z"
       style="fill:#6495ed;fill-opacity:1;stroke-width:0.230253"
       id="path34" />
  </g>
</svg>
