<?xml version="1.0" encoding="UTF-8" standalone="no"?>
<!-- Created with Inkscape (http://www.inkscape.org/) -->

<svg
   version="1.1"
   id="svg1"
   width="478.31293"
   height="250.55772"
   viewBox="0 0 478.31293 250.55772"
   xmlns="http://www.w3.org/2000/svg"
   xmlns:svg="http://www.w3.org/2000/svg">
  <defs
     id="defs1" />
  <g
     id="g1"
     transform="translate(-0.31770766,-0.93133962)">
    <path
       id="path1"
       d="m 2247.62,272.27 h 1207.89 c 74.26,0 134.22,-59.969 134.22,-134.219 0,-74.219 -59.96,-134.21897 -134.22,-134.21897 H 2247.62 c -74.22,0 -134.22,59.99997 -134.22,134.21897 0,74.25 60,134.219 134.22,134.219 z"
       style="fill:#001c43;fill-opacity:1;fill-rule:nonzero;stroke:none"
       transform="matrix(0.13333333,0,0,-0.13333333,0,252)" />
    <path
       id="path2"
       d="M 2113.4,540.898 V 1748.79 c 0,74.26 60,134.22 134.22,134.22 74.26,0 134.22,-59.96 134.22,-134.22 V 540.898 c 0,-74.257 -59.96,-134.218 -134.22,-134.218 -74.22,0 -134.22,59.961 -134.22,134.218 z"
       style="fill:#6495ed;fill-opacity:1;fill-rule:nonzero;stroke:none"
       transform="matrix(0.13333333,0,0,-0.13333333,0,252)" />
    <path
       id="path3"
       d="m 853.551,1654.1 c -52.422,52.42 -52.422,137.15 0,189.57 52.429,52.46 137.578,52.46 189.999,0 l 805.24,-805.23 c 52.46,-52.46 52.46,-137.581 0,-189.999 L 1043.55,43.1602 c -52.421,-52.42192 -137.57,-52.42192 -189.999,0 -52.422,52.4296 -52.422,137.5778 0,189.9998 l 710.039,710.469 z"
       style="fill:#001c43;fill-opacity:1;fill-rule:nonzero;stroke:none"
       transform="matrix(0.13333333,0,0,-0.13333333,0,252)" />
    <path
       id="path4"
       d="m 766.48,464.961 c 46.219,-46.211 46.219,-120.941 0,-167.191 -46.25,-46.211 -121.32,-46.211 -167.57,0 L 37.0703,859.648 c -46.24999,46.25 -46.24999,121.332 0,167.542 L 598.91,1589.06 c 46.25,46.25 121.32,46.25 167.57,0 46.219,-46.25 46.219,-121.33 0,-167.54 L 288.551,943.238 Z"
       style="fill:#6495ed;fill-opacity:1;fill-rule:nonzero;stroke:none"
       transform="matrix(0.13333333,0,0,-0.13333333,0,252)" />
    <path
       id="path5"
       d="m 797.379,859.648 c -46.25,-46.25 -120.93,-46.25 -167.18,0 -46.25,46.25 -46.25,121.332 0,167.542 l 265.313,265.31 c 46.207,46.21 121.288,46.21 167.538,0 l 265.27,-265.31 c 46.25,-46.21 46.25,-121.292 0,-167.542 -46.21,-46.25 -121.29,-46.25 -167.54,0 L 979.059,1040.98 Z"
       style="fill:#6495ed;fill-opacity:1;fill-rule:nonzero;stroke:none"
       transform="matrix(0.13333333,0,0,-0.13333333,0,252)" />
  </g>
</svg>
