<?xml version="1.0" encoding="UTF-8" standalone="no"?>
<!-- Uploaded to: SVG Repo, www.svgrepo.com, Generator: SVG Repo Mixer Tools -->

<svg
   fill="#000000"
   version="1.1"
   width="800"
   height="800"
   viewBox="0 0 512 512"
   enable-background="new 0 0 512 512"
   xml:space="preserve"
   id="svg1"
   sodipodi:docname="logoRuby.svg"
   inkscape:export-filename="ruby-svgrepo-com.png"
   inkscape:export-xdpi="96"
   inkscape:export-ydpi="96"
   inkscape:version="1.3.2 (091e20e, 2023-11-25)"
   xmlns:inkscape="http://www.inkscape.org/namespaces/inkscape"
   xmlns:sodipodi="http://sodipodi.sourceforge.net/DTD/sodipodi-0.dtd"
   xmlns="http://www.w3.org/2000/svg"
   xmlns:svg="http://www.w3.org/2000/svg"><defs
   id="defs1" /><sodipodi:namedview
   id="namedview1"
   pagecolor="#ffffff"
   bordercolor="#000000"
   borderopacity="0.25"
   inkscape:showpageshadow="2"
   inkscape:pageopacity="0.0"
   inkscape:pagecheckerboard="0"
   inkscape:deskcolor="#d1d1d1"
   inkscape:zoom="0.295"
   inkscape:cx="401.69492"
   inkscape:cy="398.30508"
   inkscape:window-width="1920"
   inkscape:window-height="1052"
   inkscape:window-x="1440"
   inkscape:window-y="28"
   inkscape:window-maximized="0"
   inkscape:current-layer="svg1" />

<g
   id="5151e0c8492e5103c096af88a51e4c6f"
   style="fill:#6495ed;fill-opacity:1">

<path
   display="inline"
   d="m 365.281,386.936 108.635,96.416 -213.754,-16.794 c 41.878,-25.3 76.426,-55.513 102.294,-79.567 0.426,0.083 0.879,0.129 1.332,0.129 0.495,-10e-4 0.994,-0.06 1.493,-0.184 z m 120.237,57.614 20.008,-262.045 c -9.898,25.284 -25.557,54.73 -45.857,86.172 z M 372.547,380.983 480.931,477.179 451.995,280.314 C 428.142,315.82 399.5,352.122 372.547,380.983 Z m -126.596,93.793 c -23.345,12.934 -47.373,23.235 -71.707,30.757 L 424.03,488.735 246.032,474.753 Z M 37.347,348.551 l 65.429,152.89 53.851,-178.4 z M 172.514,313.988 354.696,372.505 308.208,188.301 Z M 318.403,170.006 488.232,158.638 355.451,50.19 Z M 415.002,2.919 303.56,2.415 353.103,37.105 Z M 4.785,283.758 1.118,392.411 27.847,343.661 Z m 60.883,43.65 c 21.184,1.351 42.583,-3.343 64.17,-12.792 14.541,-6.891 29.626,-15.612 44.767,-25.863 21.715,-15.342 43.6,-34.532 65.645,-56.38 C 319.542,153.79 352.145,65.906 317.496,30.914 309.228,22.57 297.392,18.305 282.308,18.239 236.648,18.042 168.403,52.414 110.239,110.081 54.653,165.179 18.608,230.577 18.415,276.699 c -0.068,16.399 4.469,29.319 13.483,38.407 8.017,8.099 19.408,11.381 33.77,12.302 z M 231.103,472.18 c 2.486,-1.286 4.963,-2.586 7.408,-3.909 L 165.189,326.799 110.006,509.585 c 0.462,-0.06 4.189,-0.508 4.189,-0.508 4.816,-0.613 9.573,-1.318 14.271,-2.115 30.318,-5.169 60.315,-14.633 89.154,-28.139 4.564,-2.134 9.051,-4.353 13.483,-6.643 z m 149.74,-116.689 1.739,-1.996 c 1.214,-1.424 2.437,-2.875 3.654,-4.331 0,0 3.768,-4.486 5.232,-6.268 2.464,-2.98 4.913,-6.021 7.371,-9.079 2.258,-2.82 4.51,-5.649 6.758,-8.529 2.358,-3.021 4.716,-6.048 7.056,-9.134 5.297,-6.973 10.653,-14.284 16.377,-22.36 6.057,-8.544 11.908,-17.142 17.416,-25.584 l -9.931,-6.073 c -26.371,-16.125 -79.37,-48.606 -114.203,-70.003 l 45.074,178.595 c 4.199,-4.611 8.632,-9.625 13.457,-15.238 z M 508.235,67.95 368.005,48.261 501.693,157.588 c 4.697,-15.496 7.756,-30.524 9.088,-44.699 0.192,-1.987 0.315,-3.985 0.435,-5.998 0.114,-1.852 0.179,-3.711 0.229,-5.574 0.321,-12.073 -0.76,-23.288 -3.21,-33.367 z m -53.91,191.792 c 0.344,-0.453 0.729,-0.962 1.149,-1.573 2.669,-3.779 6.465,-9.962 10.686,-17.409 11.748,-20.717 26.239,-50.254 32.282,-71.993 L 324.03,180.403 c 36.379,22.356 89.521,54.924 115.942,71.084 l 14.087,8.598 c 0.084,-0.105 0.17,-0.22 0.266,-0.343 z m -209.061,206.386 0.545,-0.307 c 38.046,-21.084 72.05,-47.021 110.142,-84.087 L 170.532,321.927 Z M 0.5,411.942 c 0.819,24.146 5.943,44.081 15.241,59.391 L 24.399,368.22 Z m 33.784,-50.535 -9.99,119 c 14.234,18.62 33.252,26.935 61.528,26.935 2.848,0 5.806,-0.078 8.978,-0.233 L 89.805,494.697 C 78.996,467.845 48.152,391.248 34.284,361.407 Z M 506.144,60.604 C 504.088,54.315 501.464,48.508 498.333,43.298 485.701,22.283 463.881,8.837 433.462,3.322 l -67.961,37.531 z"
   id="path1"
   style="fill:#6495ed;fill-opacity:1">

</path>

</g>

</svg>
